<svg id="Group_301" data-name="Group 301" xmlns="http://www.w3.org/2000/svg" width="165.24" height="173.938" viewBox="0 0 165.24 173.938">
  <g id="Home" transform="translate(0 0)">
    <path id="Home-2" data-name="Home" d="M57.7,163.269V136.677a12.337,12.337,0,0,1,12.381-12.291h25a12.427,12.427,0,0,1,8.755,3.6,12.246,12.246,0,0,1,3.626,8.691v26.593a10.551,10.551,0,0,0,3.1,7.539,10.708,10.708,0,0,0,7.571,3.129h17.054a30.092,30.092,0,0,0,21.249-8.69,29.653,29.653,0,0,0,8.808-21.072V68.417a21.505,21.505,0,0,0-7.787-16.543l-58.013-46A26.938,26.938,0,0,0,65.1,6.5L8.41,51.874A21.516,21.516,0,0,0,0,68.417V144.1a29.949,29.949,0,0,0,30.058,29.839H46.722a10.708,10.708,0,0,0,10.746-10.591Z" transform="translate(0 0)"/>
  </g>
</svg>
